<?xml version="1.0" encoding="utf-8"?>
<!-- Generator: Adobe Illustrator 15.1.0, SVG Export Plug-In . SVG Version: 6.00 Build 0)  -->
<!DOCTYPE svg PUBLIC "-//W3C//DTD SVG 1.1//EN" "http://www.w3.org/Graphics/SVG/1.1/DTD/svg11.dtd">
<svg version="1.1" id="Layer_1" xmlns="http://www.w3.org/2000/svg" xmlns:xlink="http://www.w3.org/1999/xlink" x="0px" y="0px"
	 width="84.922px" height="26.619px" viewBox="-32.06 15.69 84.922 26.619" enable-background="new -32.06 15.69 84.922 26.619"
	 xml:space="preserve">
<g>
	<g>
		<path d="M-28.754,34.663c1.551,1.553,3.636,2.709,5.576,2.846c2.191,0.153,3.329-0.633,3.427-2.032
			c0.103-1.474-1.193-2.033-3.18-3.039l-2.926-1.504c-2.375-1.143-4.533-3.314-4.293-6.728c0.272-3.879,3.973-6.725,8.822-6.385
			c2.694,0.189,5.456,1.466,7.327,3.618l-2.892,3.154c-1.462-1.294-2.887-2.079-4.754-2.21c-1.796-0.126-3.037,0.581-3.13,1.91
			c-0.101,1.437,1.409,2.048,3.398,3.018l2.896,1.43c2.757,1.349,4.419,3.379,4.188,6.684c-0.272,3.88-3.741,7.028-9.309,6.64
			c-3.053-0.215-6.205-1.59-8.456-3.985L-28.754,34.663z"/>
		<path d="M-8.22,23.634l5.28,0.37l-1.249,17.814l-5.28-0.368L-8.22,23.634z M-8.273,18.216C-8.16,16.6-6.789,15.577-5.029,15.7
			c1.796,0.125,2.975,1.327,2.862,2.943c-0.113,1.617-1.451,2.678-3.247,2.552C-7.174,21.072-8.386,19.832-8.273,18.216z"/>
		<path d="M4.719,16.258l5.28,0.37L8.606,36.491c-0.078,1.112,0.4,1.508,0.831,1.538c0.215,0.015,0.359,0.025,0.651-0.026
			l0.372,3.961c-0.592,0.211-1.503,0.327-2.688,0.244c-3.628-0.254-4.683-2.711-4.431-6.304L4.719,16.258z"/>
		<path d="M17.501,15.929l5.138,0.36l-1.014,14.439l0.145,0.011l6.135-6.682l5.748,0.403l-6.764,6.89l5.98,10.958l-5.711-0.398
			l-3.537-7.217l-2.441,2.395l-0.307,4.383l-5.137-0.359L17.501,15.929z"/>
		<path d="M45.85,23.415c5.064,0.355,7.319,4.23,6.979,9.08c-0.065,0.935-0.233,1.789-0.372,2.212L41.789,33.96
			c0.277,2.728,1.99,4.037,4.361,4.203c1.33,0.094,2.578-0.216,3.928-0.916l1.535,3.319c-1.92,1.129-4.344,1.718-6.463,1.567
			c-5.101-0.356-8.773-4.079-8.361-9.971C37.195,26.382,41.574,23.116,45.85,23.415z M48.412,31.139
			c0.145-2.048-0.617-3.543-2.737-3.692c-1.651-0.116-3.167,0.896-3.692,3.243L48.412,31.139z"/>
	</g>
</g>
</svg>
